<svg width="38" height="44" viewBox="0 0 38 44" fill="none" xmlns="http://www.w3.org/2000/svg">
<path d="M4.07144 8.9375C4.07144 7.79883 4.98327 6.875 6.10716 6.875C7.23104 6.875 8.14287 7.79883 8.14287 8.9375C8.14287 10.0805 7.23104 11 6.10716 11C4.98327 11 4.07144 10.0805 4.07144 8.9375ZM29.8572 8.9375C29.8572 7.79883 30.7647 6.875 31.8929 6.875C33.021 6.875 33.9286 7.79883 33.9286 8.9375C33.9286 10.0805 33.021 11 31.8929 11C30.7647 11 29.8572 10.0805 29.8572 8.9375ZM8.14287 35.0625C8.14287 36.2055 7.23104 37.125 6.10716 37.125C4.98327 37.125 4.07144 36.2055 4.07144 35.0625C4.07144 33.9195 4.98327 33 6.10716 33C7.23104 33 8.14287 33.9195 8.14287 35.0625ZM29.8572 35.0625C29.8572 33.9195 30.7647 33 31.8929 33C33.021 33 33.9286 33.9195 33.9286 35.0625C33.9286 36.2055 33.021 37.125 31.8929 37.125C30.7647 37.125 29.8572 36.2055 29.8572 35.0625Z" fill="#651FFF"/>
<path opacity="0.4" d="M0 8.25C0 5.21211 2.43013 2.75 5.42857 2.75H32.5714C35.5656 2.75 38 5.21211 38 8.25V35.75C38 38.7836 35.5656 41.25 32.5714 41.25H5.42857C2.43013 41.25 0 38.7836 0 35.75V8.25ZM6.10714 6.875C4.98326 6.875 4.07143 7.79883 4.07143 8.9375C4.07143 10.0805 4.98326 11 6.10714 11C7.23103 11 8.14286 10.0805 8.14286 8.9375C8.14286 7.79883 7.23103 6.875 6.10714 6.875ZM31.8929 11C33.021 11 33.9286 10.0805 33.9286 8.9375C33.9286 7.79883 33.021 6.875 31.8929 6.875C30.7647 6.875 29.8571 7.79883 29.8571 8.9375C29.8571 10.0805 30.7647 11 31.8929 11ZM6.10714 33C4.98326 33 4.07143 33.9195 4.07143 35.0625C4.07143 36.2055 4.98326 37.125 6.10714 37.125C7.23103 37.125 8.14286 36.2055 8.14286 35.0625C8.14286 33.9195 7.23103 33 6.10714 33ZM31.8929 37.125C33.021 37.125 33.9286 36.2055 33.9286 35.0625C33.9286 33.9195 33.021 33 31.8929 33C30.7647 33 29.8571 33.9195 29.8571 35.0625C29.8571 36.2055 30.7647 37.125 31.8929 37.125Z" fill="#651FFF"/>
</svg>
