<svg width="32" height="32" viewBox="0 0 32 32" fill="none" xmlns="http://www.w3.org/2000/svg">
<g clip-path="url(#clip0_944_3173)">
<path d="M16 5C16 4.4475 16.45 4 17 4H19C19.55 4 20 4.4475 20 5V7C20 7.55 19.55 8 19 8H17C16.45 8 16 7.55 16 7V5ZM7 12C7.55 12 8 12.45 8 13V15C8 15.55 7.55 16 7 16H5C4.4475 16 4 15.55 4 15V13C4 12.45 4.4475 12 5 12H7ZM17 20C16.45 20 16 19.55 16 19V17C16 16.45 16.45 16 17 16H19C19.55 16 20 16.45 20 17V19C20 19.55 19.55 20 19 20H17ZM7 18C7.55 18 8 18.45 8 19V21C8 21.55 7.55 22 7 22H5C4.4475 22 4 21.55 4 21V19C4 18.45 4.4475 18 5 18H7ZM24 17C24 16.45 24.45 16 25 16H27C27.55 16 28 16.45 28 17V19C28 19.55 27.55 20 27 20H25C24.45 20 24 19.55 24 19V17ZM27 4C27.55 4 28 4.4475 28 5V7C28 7.55 27.55 8 27 8H25C24.45 8 24 7.55 24 7V5C24 4.4475 24.45 4 25 4H27ZM16 11C16 10.45 16.45 10 17 10H19C19.55 10 20 10.45 20 11V13C20 13.55 19.55 14 19 14H17C16.45 14 16 13.55 16 13V11ZM25 14C24.45 14 24 13.55 24 13V11C24 10.45 24.45 10 25 10H27C27.55 10 28 10.45 28 11V13C28 13.55 27.55 14 27 14H25Z" fill="white"/>
<path opacity="0.4" d="M28 0C30.2062 0 32 1.79063 32 4V28C32 30.2062 30.2062 32 28 32H4C1.79063 32 0 30.2062 0 28V12C0 9.79375 1.79063 8 4 8H12V4C12 1.79063 13.7937 0 16 0H28ZM4 21C4 21.55 4.4475 22 5 22H7C7.55 22 8 21.55 8 21V19C8 18.45 7.55 18 7 18H5C4.4475 18 4 18.45 4 19V21ZM19 20C19.55 20 20 19.55 20 19V17C20 16.45 19.55 16 19 16H17C16.45 16 16 16.45 16 17V19C16 19.55 16.45 20 17 20H19ZM24 19C24 19.55 24.45 20 25 20H27C27.55 20 28 19.55 28 19V17C28 16.45 27.55 16 27 16H25C24.45 16 24 16.45 24 17V19ZM5 12C4.4475 12 4 12.45 4 13V15C4 15.55 4.4475 16 5 16H7C7.55 16 8 15.55 8 15V13C8 12.45 7.55 12 7 12H5ZM16 7C16 7.55 16.45 8 17 8H19C19.55 8 20 7.55 20 7V5C20 4.4475 19.55 4 19 4H17C16.45 4 16 4.4475 16 5V7ZM25 4C24.45 4 24 4.4475 24 5V7C24 7.55 24.45 8 25 8H27C27.55 8 28 7.55 28 7V5C28 4.4475 27.55 4 27 4H25ZM16 13C16 13.55 16.45 14 17 14H19C19.55 14 20 13.55 20 13V11C20 10.45 19.55 10 19 10H17C16.45 10 16 10.45 16 11V13ZM27 14C27.55 14 28 13.55 28 13V11C28 10.45 27.55 10 27 10H25C24.45 10 24 10.45 24 11V13C24 13.55 24.45 14 25 14H27Z" fill="white"/>
</g>
<defs>
<clipPath id="clip0_944_3173">
<rect width="32" height="32" fill="white"/>
</clipPath>
</defs>
</svg>
