<svg width="40" height="32" viewBox="0 0 40 32" fill="none" xmlns="http://www.w3.org/2000/svg">
<g clip-path="url(#clip0_939_4433)">
<path d="M32.189 7.5874L39.1407 14.5874C39.9165 15.3687 39.9165 16.6312 39.1407 17.4124L32.189 24.4124C31.4131 25.1937 30.1593 25.1937 29.3834 24.4124C28.6076 23.6312 28.6076 22.3687 29.3834 21.5874L34.9262 15.9999L29.3834 10.4124C28.6076 9.63115 28.6076 8.36865 29.3834 7.5874C30.1593 6.80615 31.4131 6.80615 32.189 7.5874ZM10.3407 10.4124L4.79483 15.9999L10.3407 21.5874C11.1166 22.3687 11.1166 23.6312 10.3407 24.4124C9.56483 25.1937 8.31103 25.1937 7.53517 24.4124L0.58171 17.4124C-0.193903 16.6312 -0.193903 15.3687 0.58171 14.5874L7.53517 7.5874C8.31103 6.80615 9.56483 6.80615 10.3407 7.5874C11.1166 8.36865 11.1166 9.63115 10.3407 10.4124Z" fill="#651FFF"/>
<path opacity="0.4" d="M25.7462 2.54937L17.8014 30.55C17.4972 31.6125 16.3986 32.225 15.3434 31.925C14.2883 31.6187 13.68 30.5125 13.9779 29.45L21.9228 1.45062C22.2269 0.388499 23.3255 -0.2265 24.3807 0.0769995C25.4359 0.380437 26.0441 1.4875 25.7462 2.54937Z" fill="#651FFF"/>
</g>
<defs>
<clipPath id="clip0_939_4433">
<rect width="39.7241" height="32" fill="white"/>
</clipPath>
</defs>
</svg>
