<svg width="32" height="29" viewBox="0 0 32 29" fill="none" xmlns="http://www.w3.org/2000/svg">
<g clip-path="url(#clip0_939_4430)">
<path d="M12.8889 12.4446C12.1528 12.4446 11.5556 13.2429 11.5556 14.1723C11.5556 15.2001 12.1556 16.0001 12.8889 16.0001C13.6222 16.0001 14.2222 15.2001 14.2222 14.2223C14.2222 13.2446 13.6278 12.4446 12.8889 12.4446ZM0 25.7779V27.5057C0 28.0501 0.395833 28.4446 0.888889 28.4446H3.55556V24.939H0.888889C0.395833 24.889 0 25.2834 0 25.7779ZM31.1111 24.889H28.4444V6.30566C28.4444 4.79178 27.25 3.55566 25.7778 3.55566L19.5556 3.55622V7.11122H24.8889V28.4446H31.1111C31.6042 28.4446 32 28.0487 32 27.6057V25.8779C32 25.2834 31.6056 24.889 31.1111 24.889Z" fill="#651FFF"/>
<path opacity="0.4" d="M15.5722 0.0561458L4.90556 2.82003C4.06111 3.02853 3.55556 3.76465 3.55556 4.60465V28.4446H17.7778V1.84076C17.7778 0.646313 16.6944 -0.235521 15.5722 0.0561458ZM12.8889 16.0002C12.1528 16.0002 11.5556 15.2019 11.5556 14.2724C11.5556 13.2935 12.1528 12.5446 12.8889 12.5446C13.625 12.5446 14.2222 13.2446 14.2222 14.2224C14.2222 15.2002 13.6278 16.0002 12.8889 16.0002Z" fill="#651FFF"/>
</g>
<defs>
<clipPath id="clip0_939_4430">
<rect width="32" height="28.4444" fill="white"/>
</clipPath>
</defs>
</svg>
