<svg width="24" height="24" viewBox="0 0 24 24" fill="none" xmlns="http://www.w3.org/2000/svg">
<path d="M21.75 13.5H2.25C1.00781 13.5 0 14.5078 0 15.75V20.25C0 21.4922 1.00781 22.5 2.25 22.5H21.75C22.9922 22.5 24 21.4922 24 20.25V15.75C24 14.5078 22.9922 13.5 21.75 13.5ZM15 19.5C14.1741 19.5 13.5 18.8259 13.5 18C13.5 17.1741 14.1741 16.5 15 16.5C15.8259 16.5 16.5 17.1741 16.5 18C16.5 18.8259 15.825 19.5 15 19.5ZM19.5 19.5C18.6741 19.5 18 18.8259 18 18C18 17.1741 18.6741 16.5 19.5 16.5C20.3259 16.5 21 17.1741 21 18C21 18.8259 20.325 19.5 19.5 19.5Z" fill="white"/>
<path opacity="0.4" d="M21.75 1.5H2.25C1.00781 1.5 0 2.50781 0 3.75V15.75C0 14.5078 1.00781 13.5 2.25 13.5H21.75C22.9922 13.5 24 14.5078 24 15.75V3.75C24 2.50781 22.9922 1.5 21.75 1.5ZM15 16.5C14.1741 16.5 13.5 17.1741 13.5 18C13.5 18.8259 14.1741 19.5 15 19.5C15.8259 19.5 16.5 18.8259 16.5 18C16.5 17.1741 15.825 16.5 15 16.5Z" fill="white"/>
</svg>
