<svg width="24" height="24" viewBox="0 0 24 24" fill="none" xmlns="http://www.w3.org/2000/svg">
<path d="M1.12593 22.5C1.02927 22.5 0.929428 22.4868 0.829866 22.4604C0.23221 22.2978 -0.122165 21.6828 0.0390846 21.0833C0.0681471 20.9766 3.0314 10.5 15.375 10.5C15.9961 10.5 16.4578 11.0039 16.4578 11.625C16.4578 12.2461 15.9539 12.75 15.375 12.75C4.79062 12.75 2.31093 21.3047 2.21249 21.6703C2.07327 22.1297 1.62093 22.5 1.12593 22.5Z" fill="white"/>
<path opacity="0.4" d="M24 7.75289C24 13.7482 20.7159 18.7826 15.7828 20.4138C14.8434 20.7859 13.822 20.9979 12.7505 20.9979C9.5503 20.9979 6.78327 19.1735 5.41452 16.5096C7.4128 14.5352 10.5426 12.7484 15.3755 12.7484C15.9966 12.7484 16.4583 12.2445 16.4583 11.6234C16.4583 11.0023 15.9544 10.4984 15.3755 10.4984C10.4161 10.4984 6.98952 12.1957 4.64108 14.2268C4.55296 13.7482 4.50046 13.256 4.50046 12.7498C4.50046 8.19305 8.19468 4.49508 12.7505 4.49508C13.3992 4.49508 14.0297 4.56122 14.6339 4.70513C17.2167 5.32997 20.1745 4.35783 21.6323 1.8345C21.8978 1.37377 22.5708 1.38844 22.7883 1.87333C23.5641 3.59789 24 5.71383 24 7.75289Z" fill="white"/>
</svg>
