<svg width="45" height="36" viewBox="0 0 45 36" fill="none" xmlns="http://www.w3.org/2000/svg">
<path d="M4.2335 31.5562C0.263027 27.5835 0.263027 21.1429 4.2335 17.1773L12.1289 9.21788C16.0383 5.30921 22.5351 5.30921 26.4445 9.21788C29.9601 12.7335 30.4805 18.3374 27.5906 22.3804L27.5133 22.4929C26.789 23.4983 25.3828 23.7374 24.3773 23.0132C23.3648 22.289 23.1258 20.8827 23.85 19.8773L23.9273 19.7648C25.5375 17.5077 25.2844 14.421 23.3226 12.4593C21.1148 10.2515 17.5219 10.2515 15.307 12.4593L7.41796 20.3554C5.20241 22.5069 5.20241 26.1562 7.41796 28.371C9.37264 30.3327 12.4664 30.5858 14.7164 28.9757L14.8289 28.8351C15.8414 28.1741 17.2476 28.4062 17.9648 29.4187C18.6891 30.4312 18.457 31.8374 17.4445 32.5616L17.332 32.639C13.2258 35.5288 7.74843 35.0648 4.2335 31.5562Z" fill="white"/>
<path opacity="0.4" d="M40.7672 4.44664C44.7399 8.41648 44.7399 14.8571 40.7672 18.8227L32.8711 26.7188C28.8984 30.6915 22.4649 30.6915 18.4922 26.7188C14.9766 23.2032 14.5195 17.6626 17.4094 13.6196L17.4867 13.5071C18.1477 12.5016 19.5539 12.2626 20.6227 12.9868C21.6352 13.6477 21.8742 15.054 21.15 16.1227L21.0727 16.2352C19.4625 18.429 19.7156 21.579 21.6774 23.5407C23.8852 25.7485 27.4781 25.7485 29.693 23.5407L37.582 15.6446C39.7969 13.4298 39.7969 9.78055 37.582 7.62898C35.6274 5.66937 32.5336 5.41344 30.2836 7.0243L30.1711 7.10164C29.1586 7.82586 27.7524 7.53055 27.0352 6.57992C26.3109 5.56883 26.543 4.16328 27.5555 3.44117L27.668 3.36242C31.7109 0.473351 37.2516 0.931718 40.7672 4.44664Z" fill="white"/>
</svg>
