<svg width="32" height="32" viewBox="0 0 32 32" fill="none" xmlns="http://www.w3.org/2000/svg">
<g clip-path="url(#clip0_939_4436)">
<path d="M23.65 12.0062C23.65 12.2621 23.5524 12.518 23.357 12.7131L14.7125 21.4124C14.5172 21.6077 14.2613 21.7053 14.0056 21.7053C13.75 21.7053 13.4938 21.6062 13.3 21.4124L8.65 16.7687C8.45625 16.5749 8.35625 16.3187 8.35625 16.0062C8.35625 15.7502 8.45388 15.4944 8.64925 15.2993L9.35613 14.5924C9.55625 14.4499 9.75625 14.3562 10.0625 14.3562C10.3688 14.3562 10.575 14.4499 10.775 14.6437L14.0075 17.8762L21.2388 10.6449C21.4341 10.4497 21.69 10.3521 21.9456 10.3521C22.2013 10.3521 22.4574 10.4497 22.6525 10.6449L23.3594 11.3518C23.5563 11.5499 23.65 11.8062 23.65 12.0062Z" fill="#651FFF"/>
<path opacity="0.4" d="M29.1562 5.23193L17.1562 0.231926C16.8516 0.104988 16.3337 0.000488281 16.0037 0.000488281C15.6718 0.000488281 15.1569 0.104988 14.85 0.231926L2.85063 5.23193C1.73125 5.6938 1 6.78755 1 7.9438C1 24.0751 12.825 32.0001 15.9937 32.0001C19.1938 32.0001 31 23.9876 31 7.9438C31 6.78755 30.2687 5.6938 29.1562 5.23193ZM23.65 12.0063C23.65 12.2622 23.5524 12.5181 23.357 12.7132L14.7125 21.4126C14.5172 21.6078 14.2612 21.7054 14.0056 21.7054C13.75 21.7054 13.4938 21.6063 13.3 21.4126L8.65 16.7688C8.45625 16.5751 8.35625 16.3188 8.35625 16.0063C8.35625 15.7504 8.45388 15.4945 8.64925 15.2994L9.35612 14.5926C9.55625 14.4501 9.75625 14.3563 10.0625 14.3563C10.3687 14.3563 10.575 14.4501 10.775 14.6438L14.0075 17.8763L21.2388 10.6451C21.4341 10.4498 21.69 10.3522 21.9456 10.3522C22.2013 10.3522 22.4574 10.4498 22.6525 10.6451L23.3594 11.3519C23.5562 11.5501 23.65 11.8063 23.65 12.0063Z" fill="#651FFF"/>
</g>
<defs>
<clipPath id="clip0_939_4436">
<rect width="32" height="32" fill="white"/>
</clipPath>
</defs>
</svg>
