<svg width="41" height="32" viewBox="0 0 41 32" fill="none" xmlns="http://www.w3.org/2000/svg">
<g clip-path="url(#clip0_959_3185)">
<path d="M23.7928 26.2876C23.6318 26.4446 23.522 26.6448 23.4774 26.8628L22.5625 31.3259C22.482 31.719 22.8376 32.0659 23.241 31.9878L27.8163 31.0947C28.0394 31.051 28.2444 30.9443 28.4054 30.7871L36.4324 22.9558L31.8193 18.4552L23.7928 26.2876ZM40.3273 15.9814L38.9756 14.662C38.0749 13.7832 36.6149 13.7832 35.7142 14.662L33.2715 17.0457L37.8846 21.5464L40.3273 19.1632C41.2242 18.2814 41.2242 16.8564 40.3273 15.9814Z" fill="white"/>
<path opacity="0.4" d="M14.2923 16C18.8216 16 22.4923 12.4181 22.4923 8C22.4923 3.58187 18.8216 0 14.2923 0C9.82078 0 6.15 3.58187 6.15 8C6.15 12.4181 9.82078 16 14.2923 16ZM17.598 19H11.102C4.97189 19 0 23.8563 0 29.8375C0 31.0312 0.99425 32 2.22041 32H20.5679C20.4881 31.6543 20.4763 31.2931 20.5498 30.935L21.4646 26.4719C21.589 25.8642 21.8923 25.3119 22.341 24.8744L25.2699 22.0169C23.2739 20.15 20.5769 19 17.598 19Z" fill="white"/>
</g>
<defs>
<clipPath id="clip0_959_3185">
<rect width="41" height="32" fill="white"/>
</clipPath>
</defs>
</svg>
