<svg width="32" height="36" viewBox="0 0 32 36" fill="none" xmlns="http://www.w3.org/2000/svg">
<g clip-path="url(#clip0_939_4804)">
<path d="M6.97571 7.55156C7.67857 3.26813 11.45 0 16 0C20.2571 0 23.8429 2.86805 24.7929 6.75H22.2857C20.6571 6.75 19.2286 5.91258 18.4214 4.65188C17.15 6.58547 15.0429 7.875 12.5714 7.875H8.57143C8.00714 7.875 7.46429 7.75547 6.97571 7.55156ZM14.9357 25.2563L12.5714 21.375H19.4286L17.0643 25.2563L19.4429 33.968L22.2643 22.6336C27.7786 23.4773 32 28.1742 32 33.8414C32 35.0297 31.0143 36 29.8071 36H2.19429C0.982143 36 0 35.0297 0 33.8414C0 28.1742 4.22071 23.4773 9.73571 22.6336L12.5571 33.968L14.9357 25.2563Z" fill="#651FFF"/>
<path opacity="0.4" d="M18.4214 4.65186C19.2285 5.91326 20.6571 6.74998 22.2857 6.74998H24.7928C25.0428 7.46717 25.1428 8.16326 25.1428 8.99998C25.1428 13.9711 21.05 18 16 18C10.95 18 6.85712 13.9711 6.85712 8.99998C6.85712 8.44451 6.89783 8.02264 6.97497 7.55154C7.46426 7.76248 8.00712 7.87498 8.5714 7.87498H12.5714C15.0428 7.87498 17.15 6.58545 18.4214 4.65186Z" fill="#651FFF"/>
</g>
<defs>
<clipPath id="clip0_939_4804">
<rect width="32" height="36" fill="white"/>
</clipPath>
</defs>
</svg>
